<?xml version="1.0" encoding="utf-8"?>
<!-- Generator: Adobe Illustrator 26.2.1, SVG Export Plug-In . SVG Version: 6.00 Build 0)  -->
<svg version="1.1" id="Calque_1" xmlns="http://www.w3.org/2000/svg" xmlns:xlink="http://www.w3.org/1999/xlink" x="0px" y="0px"
	 viewBox="0 0 280.73 375" style="enable-background:new 0 0 280.73 375;" xml:space="preserve">
<style type="text/css">
	.st0{fill:#221F20;}
	.st1{fill:#FCDD4E;}
	.st2{fill:#C3AD48;}
	.st3{fill:#FFFFFF;}
</style>
<g>
	<g>
		<g>
			<g>
				<g>
					<g>
						<ellipse class="st0" cx="157.96" cy="246.52" rx="73.08" ry="14.25"/>
					</g>
					<g>
						<path class="st1" d="M203.74,111.49c-0.77,0-1.55-0.07-2.32-0.21c0.01-0.01-10.98-16.18-16.55-39.86
							c0.84,0.89-18.37,63.24,40.13,144.61c-1.43,0.22-2.84,0.25-4.24,0.11c-18.02-1.89-31.92-30.24-47.23-31.25
							c-16.89-1.21-8.44,26.44-27.94,24.53c-16.66-1.68-23.98-27.66-36.2-28.48c-14.92-0.99-21.49,22.69-28.68,21.95
							c-5.63-1.23-31.55-37.59,1.22-127.88c-4.9,7.58-13.16,20.15-18.5,27.21c-4.33,5.79-8.45,9.18-8.45,9.18
							c-22.81-9.34-16.36-39.91-16.36-39.99c-0.01,0.02,19.02-23.8,42.4-43.85c0,0,7.02-5.2,15.49-8.8
							c1.04,7.26,3.52,14.24,8.03,19.75c3.75,4.59,9.29,7.71,15.41,8.15c1.96,0.21,3.96,0.07,5.92-0.13
							c-1.95-0.14-3.87-0.32-5.69-0.84c-3.57-0.9-6.86-2.77-9.36-5.41c-5.74-6.09-7.62-15.14-7.36-23.9
							c0.95-0.24,1.89-0.43,2.83-0.58c0.06-0.01,0.13-0.02,0.19-0.03c0,0,0.11,2.58,0.8,6.11c0.03,0.18,0.07,0.35,0.11,0.54
							c0.41,1.99,1,4.25,1.85,6.51c0.39,1.02,0.83,2.05,1.32,3.05c0.2,0.4,0.41,0.79,0.63,1.18c0.55,0.97,1.16,1.91,1.84,2.78
							c0.82,1.05,1.74,2.01,2.77,2.84c0.17,0.14,0.35,0.27,0.52,0.4c2.31,1.7,5.15,2.73,8.63,2.64c0.41-0.01,0.81-0.03,1.21-0.06
							c13.3-0.86,20.9-10.68,25.05-19.49c0-0.01,0.01-0.01,0.01-0.02c0.23-0.48,0.44-0.96,0.65-1.44c0.13-0.3,0.26-0.59,0.38-0.88
							c0.17-0.41,0.33-0.81,0.49-1.2c0.04-0.09,0.07-0.19,0.11-0.28c0.39-1.01,0.73-1.98,1.03-2.89c0.08-0.25,0.16-0.5,0.24-0.74
							c0.24-0.74,0.44-1.43,0.62-2.07c0.12-0.42,0.22-0.82,0.32-1.19c0.02-0.09,0.05-0.18,0.07-0.27c0.06-0.23,0.11-0.44,0.16-0.65
							c0.33-1.37,0.47-2.19,0.47-2.19c0,0,0.02,0,0.05,0c0.02,0,0.04,0,0.07,0.01c0,0,0.01,0,0.01,0c0.04,0,0.1,0.01,0.16,0.01
							c0,0,0,0,0.01,0c0.33,0.03,0.91,0.09,1.7,0.18c0.35,0.04,0.74,0.09,1.16,0.14c-0.04,0.32-0.09,0.66-0.11,0.87
							c-1.88,12.03-6.44,25.15-16.52,32.22c-3.49,2.45-7.59,3.87-11.79,4.43c4.17,0.1,8.55-0.66,12.6-2.7
							c12.04-6.03,19.27-20.39,22.81-33.68c7.58,1.48,17.93,4.32,25.64,9.55c-0.01,0.02,15.09,31.99,47.85,55.65
							C239.43,75.29,221.82,111.76,203.74,111.49z"/>
						<path class="st0" d="M243.04,68.69c-30.79-22.18-45.59-52.78-45.72-53.1c-0.25-0.53-0.51-1.06-0.76-1.59
							c-0.46-0.31-0.91-0.62-1.37-0.93C180.51,3.13,157.97,1.42,157,1.34c-2.06-0.15-4.13-0.3-6.19-0.45l0,0l0,0
							c-14.64,30-37.8,7.85-38.43,7.24c-0.05-0.02-0.2,0.01-0.45,0.07c-1.77,0.28-3.54,0.57-5.31,0.85
							c-2.39,0.38-4.79,1.02-7.14,1.83c-0.2,0.05-0.4,0.12-0.59,0.2c-10.79,3.86-20.26,10.89-20.75,11.25
							c-0.07,0.05-0.14,0.1-0.21,0.16c-0.07,0.06-0.13,0.12-0.2,0.17c-23.8,20.47-42.92,44.21-43.7,45.19
							c-0.37,0.46-0.74,0.93-1.11,1.39c-0.12,0.56-0.24,1.12-0.35,1.67c-0.07,0.36-1.85,8.85-0.54,18.52
							c1.83,13.56,8.86,23.2,20.24,27.94c1.18,0.49,2.37,0.99,3.55,1.48c1.03-0.84,2.06-1.69,3.09-2.54
							c0.16-0.13,3.17-2.62,6.82-6.91c-4.55,18.19-6.77,34.69-6.52,49.62c0.29,17.77,4.4,33.34,11.19,42.94
							c3.26,4.61,6.76,7.16,10.32,7.52c6.65,0.67,10.64-4.61,14.84-10.3c4.08-5.51,8.67-11.85,13.9-11.45
							c2.44,0.19,6.53,5.37,9.88,9.59c6.23,7.85,14.23,17.84,26.56,19.13c6.64,0.69,11.96-1.06,15.77-5.26
							c2.97-3.28,4.51-7.47,5.87-11.17c2.69-7.35,3.66-8.11,6.36-7.89c4.67,0.37,10.82,6.38,16.89,12.31
							c8.5,8.3,18.41,17.96,30.63,19.26c12.63,1.54,16.09-2,16.09-2.01c-2.28-3.15-4.54-6.28-6.78-9.4
							c-13.17-18.29-23.18-36.68-30.02-54.97c-5.45-14.58-8.93-29.18-10.48-43.57c-0.36-3.38-0.6-6.58-0.75-9.6
							c3.42,6.87,6.15,10.96,6.38,11.3c0.59,0.87,1.18,1.74,1.77,2.62c0.98,0.18,1.96,0.37,2.94,0.55c1.14,0.21,2.31,0.33,3.48,0.34
							c9.59,0.1,19.7-6.61,29.79-20.45c6.98-9.55,11.51-19.16,11.7-19.56c0.99-2.1,1.98-4.2,2.96-6.3
							C246.68,71.32,244.86,70,243.04,68.69z M203.74,111.49c-0.77,0-1.55-0.07-2.32-0.21c0.01-0.01-10.98-16.18-16.55-39.86
							c0.84,0.89-18.37,63.24,40.13,144.61c-1.43,0.22-2.84,0.25-4.24,0.11c-18.02-1.89-31.92-30.24-47.23-31.25
							c-16.89-1.21-8.44,26.44-27.94,24.53c-16.66-1.68-23.98-27.66-36.2-28.48c-14.92-0.99-21.49,22.69-28.68,21.95
							c-5.63-1.23-31.55-37.59,1.22-127.88c-4.9,7.58-13.16,20.15-18.5,27.21c-4.33,5.79-8.45,9.18-8.45,9.18
							c-22.81-9.34-16.36-39.91-16.36-39.99c-0.01,0.02,19.02-23.8,42.4-43.85c0,0,7.02-5.2,15.49-8.8
							c1.04,7.26,3.52,14.24,8.03,19.75c3.75,4.59,9.29,7.71,15.41,8.15c1.96,0.21,3.96,0.07,5.92-0.13
							c-1.95-0.14-3.87-0.32-5.69-0.84c-3.57-0.9-6.86-2.77-9.36-5.41c-5.74-6.09-7.62-15.14-7.36-23.9
							c0.95-0.24,1.89-0.43,2.83-0.58c0.06-0.01,0.13-0.02,0.19-0.03c0,0,0.11,2.58,0.8,6.11c0.03,0.18,0.07,0.35,0.11,0.54
							c0.41,1.99,1,4.25,1.85,6.51c0.39,1.02,0.83,2.05,1.32,3.05c0.2,0.4,0.41,0.79,0.63,1.18c0.55,0.97,1.16,1.91,1.84,2.78
							c0.82,1.05,1.74,2.01,2.77,2.84c0.17,0.14,0.35,0.27,0.52,0.4c2.31,1.7,5.15,2.73,8.63,2.64c0.41-0.01,0.81-0.03,1.21-0.06
							c13.3-0.86,20.9-10.68,25.05-19.49c0-0.01,0.01-0.01,0.01-0.02c0.23-0.48,0.44-0.96,0.65-1.44c0.13-0.3,0.26-0.59,0.38-0.88
							c0.17-0.41,0.33-0.81,0.49-1.2c0.04-0.09,0.07-0.19,0.11-0.28c0.39-1.01,0.73-1.98,1.03-2.89c0.08-0.25,0.16-0.5,0.24-0.74
							c0.24-0.74,0.44-1.43,0.62-2.07c0.12-0.42,0.22-0.82,0.32-1.19c0.02-0.09,0.05-0.18,0.07-0.27c0.06-0.23,0.11-0.44,0.16-0.65
							c0.33-1.37,0.47-2.19,0.47-2.19c0,0,0.02,0,0.05,0c0.02,0,0.04,0,0.07,0.01c0,0,0.01,0,0.01,0c0.04,0,0.1,0.01,0.16,0.01
							c0,0,0,0,0.01,0c0.33,0.03,0.91,0.09,1.7,0.18c0.35,0.04,0.74,0.09,1.16,0.14c-0.04,0.32-0.09,0.66-0.11,0.87
							c-1.88,12.03-6.44,25.15-16.52,32.22c-3.49,2.45-7.59,3.87-11.79,4.43c4.17,0.1,8.55-0.66,12.6-2.7
							c12.04-6.03,19.27-20.39,22.81-33.68c7.58,1.48,17.93,4.32,25.64,9.55c-0.01,0.02,15.09,31.99,47.85,55.65
							C239.43,75.29,221.82,111.76,203.74,111.49z"/>
						<path class="st0" d="M119.36,197.32c-3.35-4.22-7.44-9.4-9.88-9.59c-5.22-0.4-9.82,5.94-13.9,11.45
							c-0.16,0.21-0.31,0.42-0.47,0.63c3.66,2.71,9.44,5.88,17.08,6.61c4.36,0.42,8.48-1.16,11.9-3.34
							C122.39,201.14,120.83,199.17,119.36,197.32z"/>
						<g>
							<path d="M173.91,192.12c-2.7-0.22-3.67,0.55-6.36,7.89c-0.31,0.85-0.64,1.72-0.98,2.61c5.4,3.26,14.69,8.58,18.8,8.99
								c3.06,0.3,6.5-1.07,9.71-3.04c-1.47-1.38-2.89-2.77-4.28-4.13C184.73,198.5,178.58,192.49,173.91,192.12z"/>
						</g>
					</g>
				</g>
				<g>
					<g>
						<path class="st1" d="M203.74,111.49c-0.77,0-1.55-0.07-2.32-0.21c0.01-0.01-10.98-16.18-16.55-39.86
							c0.84,0.89-18.37,63.24,40.13,144.61c-1.43,0.22-2.84,0.25-4.24,0.11c-18.02-1.89-31.92-30.24-47.23-31.25
							c-16.89-1.21-8.44,26.44-27.94,24.53c-16.66-1.68-23.98-27.66-36.2-28.48c-14.92-0.99-21.49,22.69-28.68,21.95
							c-5.63-1.23-31.55-37.59,1.22-127.88c-4.9,7.58-13.16,20.15-18.5,27.21c-4.33,5.79-8.45,9.18-8.45,9.18
							c-22.81-9.34-16.36-39.91-16.36-39.99c-0.01,0.02,19.02-23.8,42.4-43.85c0,0,7.02-5.2,15.49-8.8
							c1.04,7.26,3.52,14.24,8.03,19.75c3.75,4.59,9.29,7.71,15.41,8.15c1.96,0.21,3.96,0.07,5.92-0.13
							c-1.95-0.14-3.87-0.32-5.69-0.84c-3.57-0.9-6.86-2.77-9.36-5.41c-5.74-6.09-7.62-15.14-7.36-23.9
							c0.95-0.24,1.89-0.43,2.83-0.58c0.06-0.01,0.13-0.02,0.19-0.03c0,0,0.11,2.58,0.8,6.11c0.03,0.18,0.07,0.35,0.11,0.54
							c0.41,1.99,1,4.25,1.85,6.51c0.39,1.02,0.83,2.05,1.32,3.05c0.2,0.4,0.41,0.79,0.63,1.18c0.55,0.97,1.16,1.91,1.84,2.78
							c0.82,1.05,1.74,2.01,2.77,2.84c0.17,0.14,0.35,0.27,0.52,0.4c2.31,1.7,5.15,2.73,8.63,2.64c0.41-0.01,0.81-0.03,1.21-0.06
							c13.3-0.86,20.9-10.68,25.05-19.49c0-0.01,0.01-0.01,0.01-0.02c0.23-0.48,0.44-0.96,0.65-1.44c0.13-0.3,0.26-0.59,0.38-0.88
							c0.17-0.41,0.33-0.81,0.49-1.2c0.04-0.09,0.07-0.19,0.11-0.28c0.39-1.01,0.73-1.98,1.03-2.89c0.08-0.25,0.16-0.5,0.24-0.74
							c0.24-0.74,0.44-1.43,0.62-2.07c0.12-0.42,0.22-0.82,0.32-1.19c0.02-0.09,0.05-0.18,0.07-0.27c0.06-0.23,0.11-0.44,0.16-0.65
							c0.33-1.37,0.47-2.19,0.47-2.19c0,0,0.02,0,0.05,0c0.02,0,0.04,0,0.07,0.01c0,0,0.01,0,0.01,0c0.04,0,0.1,0.01,0.16,0.01
							c0,0,0,0,0.01,0c0.33,0.03,0.91,0.09,1.7,0.18c0.35,0.04,0.74,0.09,1.16,0.14c-0.04,0.32-0.09,0.66-0.11,0.87
							c-1.88,12.03-6.44,25.15-16.52,32.22c-3.49,2.45-7.59,3.87-11.79,4.43c4.17,0.1,8.55-0.66,12.6-2.7
							c12.04-6.03,19.27-20.39,22.81-33.68c7.58,1.48,17.93,4.32,25.64,9.55c-0.01,0.02,15.09,31.99,47.85,55.65
							C239.43,75.29,221.82,111.76,203.74,111.49z"/>
						<g>
							<path class="st0" d="M117.25,109.93c-4.08,22.55-17.01,38.65-29.03,36.33c-12.02-2.33-17.92-21.55-13.03-43.31
								c4.88-21.75,18.06-38.44,29.28-36.88C115.68,67.6,121.33,87.39,117.25,109.93z"/>
						</g>
						<g>
							<path class="st0" d="M126.8,108.43c4.01,24.85,18.73,43.9,31.93,42.15c13.22-1.74,19.27-24.44,14.5-50.25
								c-4.8-25.81-18-44.2-30.45-41.5C130.34,61.53,122.77,83.56,126.8,108.43z"/>
						</g>
					</g>
				</g>
			</g>
			<g>
				<path class="st2" d="M200.03,181.33c18.58,35.16,14.59,32.54,0.08,22.68c6.44,6.03,13.19,11.35,20.64,12.13
					c1.39,0.14,2.8,0.11,4.24-0.11c-36.95-51.4-42.89-95.2-42.47-120.73C181.24,118.7,187.04,156.74,200.03,181.33z"/>
			</g>
			<g>
				<path class="st2" d="M124.46,186.99c-6.28-4.13-9.45-4.85-12.26-5.42c9.68,3.77,16.71,22.53,29.51,26.97
					c0.34,0.11,0.67,0.22,1.01,0.32c0.07,0.02,0.13,0.04,0.2,0.05c0.41,0.11,0.82,0.2,1.23,0.28c0.03,0.01,0.07,0.01,0.1,0.02
					c0.44,0.08,0.88,0.15,1.33,0.19c0.31,0.03,0.62,0.05,0.92,0.07c0.09,0,0.18,0,0.27,0.01c0.2,0.01,0.41,0.02,0.6,0.02
					c0.11,0,0.21,0,0.31-0.01c0.18,0,0.35,0,0.52-0.01c0.11-0.01,0.21-0.01,0.31-0.02c0.16-0.01,0.33-0.02,0.48-0.04
					c0.1-0.01,0.2-0.02,0.31-0.04c0.15-0.02,0.31-0.04,0.45-0.06c0.1-0.02,0.19-0.03,0.29-0.05c0.15-0.03,0.29-0.05,0.44-0.09
					c0.09-0.02,0.18-0.04,0.27-0.07c0.14-0.04,0.28-0.07,0.42-0.11c0.08-0.02,0.17-0.05,0.25-0.08c0.14-0.04,0.28-0.09,0.41-0.14
					c0.08-0.03,0.15-0.06,0.23-0.09c0.13-0.05,0.27-0.11,0.4-0.16c0.07-0.03,0.14-0.06,0.21-0.09c0.13-0.06,0.26-0.12,0.39-0.19
					c0.06-0.03,0.12-0.06,0.18-0.1c0.13-0.07,0.26-0.14,0.39-0.22c0.05-0.03,0.11-0.06,0.16-0.1c0.13-0.08,0.26-0.17,0.38-0.25
					c0.05-0.03,0.09-0.06,0.13-0.09c0.13-0.09,0.26-0.19,0.38-0.29c0.04-0.03,0.07-0.06,0.11-0.08c0.13-0.11,0.26-0.22,0.39-0.33
					c0.03-0.02,0.05-0.05,0.08-0.07c0.14-0.12,0.27-0.25,0.4-0.38c0.01-0.01,0.03-0.03,0.04-0.04c0.14-0.14,0.28-0.29,0.42-0.45
					c0,0,0,0,0,0c-0.07-0.04-0.11-0.06-0.11-0.06C145.58,213.74,131.03,191.31,124.46,186.99z"/>
			</g>
			<g>
				<path class="st2" d="M80.8,199.77c-1.06-1.62-21.1-32.16-9.12-91.1c-15.88,65.8,4.16,93.15,9.03,94.22
					c1.89,0.19,3.74-1.3,5.71-3.59C85.36,200.11,82.35,202.12,80.8,199.77z"/>
				<path class="st2" d="M54.98,111.4c0,0,4.12-3.39,8.45-9.18c4.98-6.59,12.5-17.97,17.47-25.62
					c-5.03,7.59-27.25,39.12-39.14,22.79C44.33,104.32,48.46,108.73,54.98,111.4z"/>
			</g>
			<g>
				<path class="st2" d="M184.89,71.5c0,0,0,0.01,0,0.01c5.59,23.63,16.54,39.75,16.53,39.76c0.77,0.14,1.54,0.21,2.32,0.21
					c4.82,0.07,9.61-2.47,14.03-6.23l-0.12-0.04C197.19,113.68,185.48,73.56,184.89,71.5z"/>
			</g>
			<g>
				<path class="st2" d="M117.78,40.12c-0.51-0.28-1-0.59-1.46-0.93c-0.18-0.13-0.35-0.26-0.52-0.4c-1.03-0.83-1.95-1.79-2.77-2.84
					c-0.68-0.87-1.29-1.81-1.84-2.78c-0.22-0.39-0.43-0.78-0.63-1.18c-0.5-1-0.94-2.02-1.32-3.05c-0.85-2.25-1.44-4.51-1.85-6.51
					c-0.04-0.18-0.07-0.36-0.11-0.54c-0.68-3.53-0.79-6.11-0.8-6.11c-0.06,0.01-0.13,0.02-0.19,0.03c-0.94,0.15-1.89,0.34-2.83,0.58
					c-0.25,8.76,1.63,17.81,7.36,23.9c2.5,2.63,5.79,4.5,9.36,5.41c0.3,0.09,0.6,0.16,0.91,0.23
					C111.67,42.25,114.95,40.71,117.78,40.12z"/>
			</g>
			<path class="st2" d="M140.89,42.82c0.48-0.29,0.94-0.59,1.4-0.91c10.07-7.07,14.64-20.19,16.52-32.22
				c0.03-0.21,0.07-0.55,0.11-0.87c-0.43-0.05-0.81-0.1-1.16-0.14c-0.79-0.09-1.37-0.15-1.7-0.18c0,0,0,0-0.01,0
				c-0.06-0.01-0.12-0.01-0.16-0.01c0,0-0.01,0-0.01,0c-0.03,0-0.06,0-0.07-0.01c-0.03,0-0.05-0.01-0.05,0c0,0-0.14,0.82-0.47,2.19
				c-0.05,0.21-0.1,0.42-0.16,0.65c-0.02,0.09-0.05,0.18-0.07,0.27c-0.1,0.37-0.2,0.77-0.32,1.19c-0.18,0.64-0.38,1.33-0.62,2.07
				c-0.08,0.24-0.16,0.49-0.24,0.74c-0.3,0.91-0.65,1.88-1.03,2.89c-0.04,0.09-0.07,0.19-0.11,0.28c-0.15,0.39-0.32,0.79-0.49,1.2
				c-0.12,0.29-0.25,0.59-0.38,0.88c-0.21,0.47-0.43,0.96-0.65,1.44c0,0.01-0.01,0.01-0.01,0.02c-2.51,5.33-6.28,11.02-11.81,14.88
				C142.87,36.78,147.68,36.99,140.89,42.82z"/>
			<path class="st2" d="M105.49,66.24c-0.07-0.01-0.14-0.01-0.2-0.02c10.66,2.38,15.94,21.74,11.96,43.71
				c-4.08,22.55-17.01,38.65-29.03,36.33c-11.12-2.16-16.99-18.75-13.95-38.45c-3.95,21.51,2.22,39.98,14.24,42.31
				c12.58,2.43,26.1-14.41,30.37-38C123.14,88.55,117.23,67.85,105.49,66.24z"/>
			<g>
				<path class="st0" d="M126.8,108.43c4.01,24.85,18.73,43.9,31.93,42.15c13.22-1.74,19.27-24.44,14.5-50.25
					c-4.8-25.81-18-44.2-30.45-41.5C130.34,61.53,122.77,83.56,126.8,108.43z"/>
			</g>
			<path class="st2" d="M174.79,98.12c-5-26.86-18.73-45.99-31.69-43.19c-12.93,2.82-20.82,25.74-16.62,51.62
				c0.09,0.56,0.19,1.11,0.29,1.66c-3.95-24.77,3.61-46.69,16-49.39c12.45-2.69,25.65,15.69,30.45,41.5
				c4.68,25.28-1.04,47.56-13.7,50.1c0.06-0.01,0.12-0.01,0.18-0.02C173.46,148.59,179.76,124.97,174.79,98.12z"/>
		</g>
		
			<ellipse transform="matrix(0.2149 -0.9766 0.9766 0.2149 -20.1074 188.362)" class="st3" cx="107.11" cy="106.69" rx="14.34" ry="3.43"/>
		<g>
			<path class="st3" d="M134.33,106.59c1.01,8.6,3.87,15.81,6.37,16.03c2.49,0.22,3.71-6.64,2.7-15.24l-0.66-5.66
				c-1.01-8.6-3.87-15.81-6.37-16.03c-2.49-0.22-3.71,6.64-2.7,15.24L134.33,106.59z"/>
		</g>
	</g>
	<g>
		<g>
			<g>
				<path class="st1" d="M6.26,334.17l-3.44,8.81h15.2l-5.75,30.21h11.09l5.75-30.21H44.3l-0.09-8.81H6.26z"/>
			</g>
			<g>
				<polygon class="st1" points="57.5,364.43 58.77,357.8 76.7,357.8 78.36,349.1 60.42,349.1 61.59,342.97 85.18,342.97 
					85.06,334.17 52.17,334.17 44.75,373.18 77.81,373.18 81.25,364.43 				"/>
			</g>
			<g>
				<polygon class="st1" points="249.06,364.43 250.32,357.8 268.26,357.8 269.91,349.1 251.97,349.1 253.14,342.97 276.73,342.97 
					276.61,334.17 243.73,334.17 236.3,373.18 269.37,373.18 272.8,364.43 				"/>
			</g>
			<g>
				<path class="st1" d="M133.28,334.17h-11.09l-10.53,12.15h-0.11l-5.78-12.15H93.2l10.66,19.62l-17.86,19.4h12.48l9.41-11.31H108
					l5.14,11.31h13.13l-10.47-19.67L133.28,334.17z"/>
			</g>
			<g>
				<path class="st1" d="M141.66,334.17l-3.44,8.81h15.2l-5.75,30.21h11.09l5.75-30.21h15.19l-0.09-8.81H141.66z"/>
			</g>
			<g>
				<path class="st1" d="M187.57,334.17l-7.43,39.01h11.09l7.43-39.01H187.57z"/>
			</g>
			<g>
				<path class="st1" d="M215.95,334.17h-11.09l-7.43,39.01h30.88l3.46-8.75h-21.58L215.95,334.17z"/>
			</g>
		</g>
		<g>
			<g>
				<g>
					<path class="st0" d="M208.95,299.37c-0.46-0.33-0.69-0.57-0.7-0.72c-0.01-0.23,0.11-0.59,0.37-1.07
						c0.25-0.48,0.54-1.02,0.84-1.61c0.31-0.6,0.61-1.25,0.91-1.97c0.3-0.71,0.44-1.34,0.41-1.88l-0.06-1.16
						c-0.12-0.15-0.18-0.26-0.18-0.34c-0.01-0.31,0.31-0.48,0.98-0.51c0.88-0.12,1.93,0.14,3.12,0.78c1.2,0.64,1.76,1.31,1.68,2.02
						c0.03,0.54-0.19,1.19-0.66,1.95c-0.46,0.76-1.01,1.5-1.64,2.23c-0.63,0.73-1.3,1.36-1.99,1.9c-0.7,0.54-1.21,0.81-1.54,0.83
						C209.92,299.85,209.41,299.7,208.95,299.37z"/>
				</g>
			</g>
			<path class="st0" d="M125.11,305.45c0.85-0.05,1.74-0.08,2.69-0.08c1.15,0,2.23,0.08,3.25,0.23c1.02,0.15,1.86,0.45,2.54,0.88
				c0.68,0.43,1.15,1,1.42,1.72c0.27,0.71,0.3,1.6,0.1,2.67c-0.07,0.51-0.27,0.76-0.61,0.76c-0.14,0-0.34-0.04-0.61-0.11
				c-0.27-0.08-0.61-0.14-1.02-0.19c-0.41-0.05-0.8-0.08-1.17-0.08c-0.37,0-0.8,0-1.27,0c-1.69,0-3.6,0.09-5.74,0.27
				c-2.13,0.18-4.32,0.39-6.55,0.65c-2.1,3.3-14.12,21.46-15.27,24.72c-0.14,0.25-0.25,0.48-0.36,0.69c-0.1,0.2-0.25,0.43-0.46,0.69
				c-0.41-0.05-0.83-0.25-1.27-0.61c-0.44-0.36-0.85-0.76-1.22-1.22c-0.37-0.46-0.69-0.93-0.96-1.41c-0.27-0.48-0.44-0.88-0.51-1.18
				c-0.14-0.46-0.19-0.86-0.15-1.22c0.03-0.36,0.19-0.74,0.46-1.14c0.41-0.61,0.85-1.23,1.32-1.87c0.47-0.64,0.91-1.28,1.32-1.94
				c1.08-1.63,10.84-13.2,11.92-14.88c-1.76,0.26-3.39,0.5-4.87,0.72c-1.49,0.23-2.78,0.42-3.86,0.57
				c-0.27,0.05-0.58,0.08-0.91,0.08h-0.41c-0.14-0.25-0.19-0.6-0.15-1.03c0.03-0.43,0.13-0.86,0.3-1.3
				c0.17-0.43,0.36-0.85,0.56-1.26c0.2-0.41,0.41-0.71,0.61-0.92c0.68-0.76,1.49-1.32,2.44-1.68c0.95-0.36,2.03-0.58,3.25-0.69
				c1.15-0.15,2.35-0.3,3.6-0.46c1.25-0.15,2.52-0.3,3.81-0.46c1.69-2.49,8.94-11.67,10.97-13.8c-4.47,0.56-8.87,1.27-13.2,2.14
				c-4.33,0.86-8.6,1.96-12.79,3.28c-0.2,0.05-0.56,0.17-1.07,0.34c-0.51,0.18-1.05,0.38-1.62,0.61c-0.58,0.23-1.08,0.46-1.52,0.69
				c-0.44,0.23-0.69,0.42-0.76,0.57c-0.2,0.51,0.2,1.02,1.22,1.53c1.02,0.51,2.11,0.97,3.3,1.37c1.18,0.41,2.15,0.76,2.89,1.07
				c0.74,0.31,0.71,0.48-0.1,0.53c-0.54,0.05-1.03,0.09-1.47,0.11c-0.44,0.03-0.86,0.04-1.27,0.04c-3.52,0-5.74-0.53-6.65-1.6
				c-0.91-1.07-0.8-2.34,0.36-3.81c1.08-1.47,2.71-2.82,4.87-4.04c2.17-1.22,4.64-2.31,7.41-3.28c2.77-0.96,5.74-1.8,8.88-2.52
				c3.15-0.71,6.24-1.31,9.29-1.79c3.05-0.48,5.96-0.84,8.73-1.07c2.77-0.23,5.14-0.34,7.11-0.34c1.76,0,3.43,0.06,5.03,0.19
				c1.59,0.13,3.06,0.34,4.42,0.65c0.61,0.15,1.08,0.48,1.42,0.99c0.34,0.51,0.56,1.07,0.66,1.68s0.1,1.23,0,1.87
				c-0.1,0.64-0.29,1.13-0.56,1.49c-0.27-0.71-1.3-1.18-3.1-1.41c-1.79-0.23-3.81-0.34-6.04-0.34c-2.03,0-4.01,0.05-5.94,0.15
				c-1.93,0.1-3.37,0.2-4.32,0.31c-3.93,4.32-7.62,8.9-11.07,13.73C123.36,305.58,124.26,305.5,125.11,305.45z"/>
			<path class="st0" d="M160.9,303.32c-0.41,0.31-1.03,1.02-1.88,2.14c-0.85,1.12-1.76,2.43-2.74,3.93c-0.98,1.5-1.98,3.11-3,4.84
				c-1.02,1.73-1.88,3.36-2.59,4.88c-0.71,1.53-1.2,2.83-1.47,3.93c-0.27,1.09-0.2,1.79,0.2,2.1c0.13,0.05,0.34,0.08,0.61,0.08
				c0.81,0,1.81-0.5,3-1.49c1.18-0.99,2.39-2.17,3.6-3.55c1.22-1.37,2.4-2.78,3.55-4.23c1.15-1.45,2.06-2.63,2.74-3.55
				c0.27-0.36,0.68-0.53,1.22-0.53c0.41,0,0.64,0.2,0.71,0.61c-0.47,0.97-1.34,2.36-2.59,4.19c-1.25,1.83-2.67,3.66-4.26,5.49
				c-1.59,1.83-3.27,3.43-5.03,4.8c-1.76,1.37-3.35,2.06-4.77,2.06c-0.81,0-1.42-0.2-1.83-0.61c-0.54-0.51-0.95-1.12-1.22-1.83
				c-0.27-0.71-0.44-1.46-0.51-2.25c-0.07-0.79-0.07-1.58,0-2.36c0.07-0.79,0.2-1.49,0.41-2.1c-0.07,0.2-0.2,0.41-0.41,0.61
				c-0.34,0.46-0.88,1.18-1.62,2.17c-0.75,0.99-1.57,1.97-2.49,2.94c-0.91,0.97-1.85,1.82-2.79,2.55c-0.95,0.74-1.83,1.11-2.64,1.11
				c-1.08,0-1.93-0.28-2.54-0.84c-0.81-0.71-1.15-1.83-1.02-3.36c0.07-1.58,0.53-3.43,1.37-5.57c0.85-2.14,1.91-4.3,3.2-6.48
				c1.29-2.19,2.71-4.23,4.26-6.14c1.56-1.91,3.08-3.39,4.57-4.46c1.42-0.97,2.57-1.45,3.45-1.45c0.61,0,1.17,0.22,1.68,0.65
				c0.51,0.43,0.91,0.95,1.22,1.56c0.3,0.61,0.54,1.22,0.71,1.83c0.17,0.61,0.25,1.09,0.25,1.45c0.34-0.41,0.76-0.96,1.27-1.68
				c0.51-0.71,1-1.24,1.47-1.6c0.88-0.66,1.89-0.99,3.05-0.99C159.14,302.17,160.09,302.55,160.9,303.32z M139.73,322.64
				c1.25-1.19,2.52-2.55,3.81-4.08c1.29-1.52,2.45-3.02,3.5-4.5c1.05-1.47,1.71-2.46,1.98-2.97l0.3-0.53
				c0.07-0.15,0.15-0.48,0.25-0.99c0.1-0.51,0.19-1.04,0.25-1.6c0.07-0.56,0.1-1.09,0.1-1.6c0-0.51-0.07-0.86-0.2-1.07
				c-0.07-0.1-0.17-0.15-0.3-0.15c-0.47,0-1.1,0.36-1.88,1.07c-0.78,0.71-1.62,1.63-2.54,2.74c-0.91,1.12-1.86,2.38-2.84,3.77
				c-0.98,1.4-1.88,2.76-2.69,4.08c-0.81,1.32-1.51,2.55-2.08,3.7c-0.57,1.14-0.93,2.02-1.07,2.63c-0.2,0.86-0.07,1.3,0.41,1.3
				C137.48,324.44,138.47,323.84,139.73,322.64z"/>
			<path class="st0" d="M178.87,295.27c-2.3,3.02-4.6,6.27-6.9,9.72c1.15-1.17,2.3-2.12,3.45-2.86c1.15-0.74,2.2-1.11,3.15-1.11
				c0.27,0,0.61,0.05,1.02,0.15c1.62,0.61,2.55,1.78,2.79,3.51c0.24,1.73,0,3.7-0.71,5.91c-0.71,2.21-1.76,4.49-3.15,6.82
				c-1.39,2.34-2.86,4.45-4.42,6.33c-0.27,0.36-0.68,0.84-1.22,1.45c-0.54,0.61-1.13,1.19-1.78,1.75c-0.64,0.56-1.35,1.06-2.13,1.49
				c-0.78,0.43-1.54,0.65-2.28,0.65c-0.81,0-1.51-0.24-2.08-0.72c-0.58-0.48-1.03-1.05-1.37-1.72c-0.34-0.66-0.61-1.35-0.81-2.06
				c-0.2-0.71-0.3-1.3-0.3-1.75c-0.54,1.32-1.02,2.59-1.42,3.81c-0.41,1.22-0.68,2.36-0.81,3.43c-0.54,0-1.03-0.24-1.47-0.72
				c-0.44-0.48-0.83-1.03-1.17-1.64c-0.34-0.61-0.63-1.23-0.86-1.87c-0.24-0.64-0.36-1.13-0.36-1.49c0-0.31,0.15-0.81,0.46-1.53
				c0.3-0.71,0.64-1.45,1.02-2.21c0.37-0.76,0.71-1.46,1.02-2.1c0.3-0.64,0.49-1,0.56-1.11c1.42-2.74,3.15-5.76,5.18-9.04
				c2.03-3.28,4.08-6.48,6.14-9.61c2.06-3.13,4.03-6,5.89-8.62c1.86-2.62,3.33-4.64,4.42-6.06c0.47,0.05,1,0.18,1.57,0.38
				c0.57,0.2,1.08,0.47,1.52,0.8c0.44,0.33,0.79,0.71,1.07,1.14c0.27,0.43,0.34,0.88,0.2,1.33
				C183.24,289.74,181.17,292.25,178.87,295.27z M168.06,322.53c0.91-0.97,1.86-2.15,2.84-3.55c0.98-1.4,1.95-2.92,2.89-4.58
				c0.95-1.65,1.74-3.16,2.39-4.54c0.64-1.37,1.08-2.53,1.32-3.47c0.24-0.94,0.15-1.38-0.25-1.33c-1.08,0.05-2.3,0.61-3.66,1.68
				c-1.35,1.07-2.67,2.31-3.96,3.74c-1.29,1.42-2.42,2.87-3.4,4.35c-0.98,1.47-1.68,2.67-2.08,3.58c-0.2,0.71-0.29,1.41-0.25,2.1
				c0.03,0.69,0.12,1.3,0.25,1.83c0.13,0.53,0.34,0.95,0.61,1.26c0.27,0.31,0.57,0.46,0.91,0.46
				C166.35,324.01,167.14,323.5,168.06,322.53z"/>
			<path class="st0" d="M193.22,307.74c0.37,1.07,0.39,2.29,0.05,3.66c-0.34,1.37-0.9,2.8-1.68,4.27c-0.78,1.47-1.52,2.82-2.23,4.04
				c-0.71,1.22-1.24,2.22-1.57,3.01c-0.34,0.79-0.24,1.18,0.3,1.18c0.07,0,0.12-0.01,0.15-0.04c0.03-0.03,0.12-0.04,0.25-0.04
				c1.35-1.47,2.64-2.92,3.86-4.35c1.08-1.27,2.2-2.59,3.35-3.96c1.15-1.37,2.1-2.62,2.84-3.74c0.13-0.25,0.34-0.44,0.61-0.57
				c0.27-0.13,0.47-0.19,0.61-0.19c0.41,0,0.44,0.43,0.1,1.3c-0.07,0.15-0.34,0.61-0.81,1.37c-0.47,0.76-1.07,1.69-1.78,2.78
				c-0.71,1.09-1.49,2.28-2.34,3.55c-0.85,1.27-1.71,2.48-2.59,3.62c-0.88,1.14-1.71,2.17-2.49,3.09c-0.78,0.91-1.44,1.55-1.98,1.91
				c-0.27,0.15-0.61,0.23-1.02,0.23c-0.68,0-1.35-0.27-2.03-0.8c-0.68-0.53-1.23-1.16-1.68-1.87c-0.44-0.71-0.74-1.44-0.91-2.17
				c-0.17-0.74-0.15-1.31,0.05-1.72c0.75-1.37,1.57-2.8,2.49-4.27c0.91-1.47,1.74-2.87,2.49-4.19c0.74-1.32,1.39-2.53,1.93-3.62
				c0.54-1.09,0.85-1.92,0.91-2.48c0.07-0.25-0.02-0.46-0.25-0.61c-0.24-0.15-0.42-0.28-0.56-0.38
				c-11.42,16.38-17.25,19.78-20.34,21.69c-0.13,0.15,1.05-0.67,0.71-0.67c-0.34,0-0.66-0.1-0.96-0.31c-0.3-0.2,0.43-4.3,0.5-4.56
				c2.17-2.54,7.21-4.04,18.57-17.23c-0.61-0.71-0.83-1.74-0.66-3.09c0.17-1.35,0.52-2.71,1.07-4.08c0.54-1.37,1.17-2.57,1.88-3.58
				c0.71-1.02,1.34-1.53,1.88-1.53c0.41,0,0.74,0.37,1.02,1.11c0.27,0.74,0.47,1.58,0.61,2.52c0.13,0.94,0.19,1.87,0.15,2.78
				c-0.03,0.92-0.19,1.58-0.46,1.98c-0.27,0.36-0.51,0.66-0.71,0.91c-0.2,0.26-0.42,0.51-0.66,0.76c-0.24,0.26-0.47,0.53-0.71,0.84
				c-0.24,0.31-0.53,0.69-0.86,1.14C191.88,305.91,192.84,306.67,193.22,307.74z"/>
			<path class="st0" d="M202.1,322.72c1.15-0.84,2.3-1.8,3.45-2.9c1.15-1.09,2.23-2.17,3.25-3.24c1.02-1.07,1.69-1.83,2.03-2.29
				c0.34-0.31,0.64-0.46,0.91-0.46c0.34,0,0.57,0.09,0.71,0.27c0.13,0.18,0.13,0.39,0,0.65c-0.34,0.41-0.86,1.04-1.57,1.91
				c-0.71,0.86-1.49,1.82-2.34,2.86c-0.85,1.04-1.76,2.11-2.74,3.2c-0.98,1.09-1.98,2.1-3,3.01c-1.02,0.91-1.98,1.67-2.89,2.25
				c-0.91,0.58-1.74,0.88-2.49,0.88h-0.51c-0.61-0.15-1.13-0.44-1.57-0.88c-0.44-0.43-0.83-0.92-1.17-1.45
				c-0.34-0.53-0.57-1.07-0.71-1.6c-0.13-0.53-0.2-0.98-0.2-1.33c0-1.02,0.34-2.34,1.02-3.96c0.68-1.63,1.59-3.46,2.74-5.49
				c1.15-2.03,2.45-4.21,3.91-6.52c1.45-2.31,2.96-4.64,4.52-6.98c0.07-0.1,0.2-0.15,0.41-0.15c0.47,0,0.96,0.09,1.47,0.27
				c0.51,0.18,0.95,0.41,1.32,0.69c0.37,0.28,0.64,0.61,0.81,0.99c0.17,0.38,0.19,0.8,0.05,1.26c-1.62,2.39-3.18,4.75-4.67,7.09
				c-1.49,2.34-2.74,4.45-3.76,6.33c-1.02,1.88-1.71,3.43-2.08,4.65c-0.37,1.22-0.25,1.96,0.36,2.21
				C200.04,323.98,200.95,323.56,202.1,322.72z"/>
			<path class="st0" d="M235.61,302.25c-0.41,0.31-0.96,0.97-1.68,1.98c-0.71,1.02-1.49,2.21-2.34,3.58
				c-0.85,1.37-1.69,2.86-2.54,4.46c-0.85,1.6-1.66,3.15-2.44,4.65c-0.78,1.5-1.44,2.89-1.98,4.16c-0.54,1.27-0.95,2.26-1.22,2.97
				c1.29-1.32,2.55-2.8,3.81-4.42c1.25-1.63,2.45-2.97,3.6-4.04c0.54-0.46,1.02-0.69,1.42-0.69c0.34,0,0.56,0.13,0.66,0.38
				c0.1,0.26-0.05,0.66-0.46,1.22c-1.02,1.22-2.15,2.58-3.4,4.08c-1.25,1.5-2.45,2.99-3.6,4.46c-1.15,1.47-2.18,2.87-3.1,4.19
				c-0.91,1.32-1.51,2.36-1.78,3.13l-5.79,16.62c-1.29-0.46-2.35-1.11-3.2-1.94c-0.85-0.84-1.34-1.87-1.47-3.09
				c1.76-4.32,3.49-8.62,5.18-12.89c1.69-4.27,3.42-8.57,5.18-12.89c-0.41,0.56-1.03,1.42-1.88,2.59c-0.85,1.17-1.81,2.35-2.89,3.55
				c-1.08,1.19-2.17,2.24-3.25,3.13c-1.08,0.89-2.06,1.33-2.94,1.33c-1.35,0-2.32-0.46-2.89-1.37c-0.57-0.92-0.83-2.01-0.76-3.28
				c0-0.81,0.27-1.98,0.81-3.51c0.54-1.53,1.25-3.19,2.13-4.99c0.88-1.8,1.9-3.65,3.05-5.53c1.15-1.88,2.35-3.58,3.6-5.11
				c1.25-1.53,2.54-2.77,3.86-3.74c1.32-0.97,2.55-1.45,3.71-1.45c0.68,0,1.25,0.23,1.73,0.69c0.47,0.46,0.86,0.99,1.17,1.6
				c0.3,0.61,0.54,1.23,0.71,1.87c0.17,0.64,0.25,1.13,0.25,1.49c0.34-0.41,0.78-0.98,1.32-1.72c0.54-0.74,1.08-1.28,1.62-1.64
				c0.74-0.66,1.73-0.99,2.94-0.99C233.92,301.1,234.86,301.49,235.61,302.25z M216.01,312.85c-0.41,0.66-0.86,1.42-1.37,2.29
				c-0.51,0.86-1.03,1.81-1.57,2.82c-0.54,1.02-0.96,1.93-1.27,2.74c-0.3,0.81-0.47,1.5-0.51,2.06c-0.03,0.56,0.19,0.84,0.66,0.84
				c0.41,0,0.95-0.28,1.62-0.84c0.68-0.56,1.42-1.28,2.23-2.17c0.81-0.89,1.64-1.88,2.49-2.97c0.85-1.09,1.64-2.14,2.39-3.13
				c0.74-0.99,1.39-1.89,1.93-2.71c0.54-0.81,0.91-1.4,1.12-1.75l0.2-0.46c0.07-0.15,0.15-0.48,0.25-0.99
				c0.1-0.51,0.19-1.04,0.25-1.6c0.07-0.56,0.1-1.11,0.1-1.64c0-0.53-0.07-0.9-0.2-1.11c-0.14-0.1-0.24-0.15-0.3-0.15
				c-0.41,0-0.98,0.34-1.73,1.03c-0.75,0.69-1.49,1.47-2.23,2.36c-0.75,0.89-1.42,1.74-2.03,2.55c-0.61,0.81-1.02,1.35-1.22,1.6
				C216.69,311.78,216.42,312.19,216.01,312.85z"/>
			<path class="st0" d="M239.41,322.57c-0.78,1.04-1.64,2.1-2.59,3.16c-0.95,1.07-1.95,2-3,2.78c-1.05,0.79-2.01,1.18-2.89,1.18
				c-0.74,0-1.4-0.14-1.98-0.42c-0.57-0.28-1.03-0.65-1.37-1.11c-0.34-0.46-0.59-0.94-0.76-1.45c-0.17-0.51-0.22-0.99-0.15-1.45
				c0.14-1.42,0.71-3.28,1.73-5.57c1.02-2.29,2.2-4.65,3.55-7.09c1.35-2.44,2.74-4.75,4.16-6.94c1.42-2.19,2.64-3.89,3.66-5.11
				c0.34-0.05,0.66-0.09,0.96-0.11c0.3-0.03,0.59-0.04,0.86-0.04c0.74,0,1.42,0.11,2.03,0.34c0.61,0.23,1.12,0.67,1.52,1.33
				c-0.34,0.31-0.93,1.08-1.78,2.33c-0.85,1.25-1.81,2.72-2.89,4.42c-1.08,1.7-2.17,3.5-3.25,5.38c-1.08,1.88-2.03,3.61-2.84,5.18
				c-0.81,1.58-1.39,2.87-1.73,3.89c-0.34,1.02-0.27,1.53,0.2,1.53c0.61,0,1.47-0.53,2.59-1.6c1.12-1.07,2.32-2.41,3.6-4.04
				c1.29-1.63,2.62-3.39,4.01-5.3c1.39-1.91,2.67-3.71,3.86-5.41c1.18-1.7,2.23-3.19,3.15-4.46c0.91-1.27,1.54-2.03,1.88-2.29
				c0.34-0.25,0.85-0.38,1.52-0.38c0.74,0,1.52,0.15,2.34,0.46c0.81,0.31,1.42,0.64,1.83,0.99c-0.41,0.3-1.05,0.99-1.93,2.06
				c-0.88,1.07-1.85,2.35-2.89,3.85c-1.05,1.5-2.08,3.09-3.1,4.77c-1.02,1.68-1.88,3.25-2.59,4.73c-0.71,1.47-1.22,2.75-1.52,3.81
				c-0.3,1.07-0.22,1.75,0.25,2.06c0.07,0.1,0.24,0.15,0.51,0.15c0.68,0,1.61-0.44,2.79-1.33c1.18-0.89,2.42-1.96,3.71-3.2
				c1.29-1.25,2.52-2.53,3.71-3.85c1.18-1.32,2.15-2.41,2.89-3.28c0.34-0.41,0.71-0.61,1.12-0.61c0.47,0,0.71,0.2,0.71,0.61
				c-0.34,0.56-0.88,1.36-1.62,2.4c-0.75,1.04-1.61,2.2-2.59,3.47c-0.98,1.27-2.07,2.57-3.25,3.89c-1.19,1.32-2.37,2.53-3.55,3.62
				c-1.19,1.09-2.37,1.98-3.55,2.67c-1.19,0.69-2.28,1.03-3.3,1.03c-0.68,0-1.29-0.23-1.83-0.69c-0.47-0.51-0.81-1.13-1.02-1.87
				c-0.2-0.74-0.29-1.51-0.25-2.33c0.03-0.81,0.12-1.61,0.25-2.4c0.13-0.79,0.3-1.49,0.51-2.1
				C240.75,320.75,240.19,321.53,239.41,322.57z"/>
			<path class="st0" d="M276.93,313.38l0.1-0.08c0.13,0,0.2,0.09,0.2,0.27c0,0.18-0.03,0.34-0.1,0.5c-0.2,0.81-0.91,2.05-2.13,3.7
				c-1.22,1.65-2.66,3.32-4.32,4.99c-1.66,1.68-3.47,3.14-5.43,4.38c-1.96,1.25-3.83,1.87-5.58,1.87c-1.62,0-2.94-0.55-3.96-1.64
				c-1.02-1.09-1.62-2.27-1.83-3.55c-0.27-1.47-0.15-3.08,0.36-4.8c0.51-1.73,1.25-3.47,2.23-5.22c0.98-1.75,2.15-3.44,3.5-5.07
				c1.35-1.63,2.74-3.06,4.16-4.31c1.42-1.25,2.79-2.25,4.11-3.01c1.32-0.76,2.45-1.14,3.4-1.14c0.13,0,0.25,0.01,0.36,0.04
				c0.1,0.03,0.22,0.04,0.36,0.04c1.15,0.41,1.84,1.17,2.08,2.29c0.24,1.12,0.17,2.36-0.2,3.74c-0.37,1.37-1.03,2.81-1.98,4.31
				c-0.95,1.5-2.01,2.87-3.2,4.12c-1.19,1.25-2.45,2.26-3.81,3.05c-1.35,0.79-2.64,1.18-3.86,1.18c-0.61,0-1.25-0.2-1.93-0.61
				c-0.2,0.36-0.34,0.85-0.41,1.49c-0.07,0.64-0.03,1.27,0.1,1.91c0.13,0.64,0.41,1.19,0.81,1.68c0.41,0.48,0.98,0.75,1.73,0.8
				c1.22,0.05,2.59-0.41,4.11-1.37c1.52-0.97,3.01-2.07,4.47-3.32c1.45-1.25,2.76-2.45,3.91-3.62c1.15-1.17,1.96-1.98,2.44-2.44
				C276.76,313.43,276.86,313.38,276.93,313.38z M261.19,315.74c0.47,0,1.12-0.29,1.93-0.88c0.81-0.58,1.66-1.32,2.54-2.21
				c0.88-0.89,1.76-1.86,2.64-2.9c0.88-1.04,1.64-2.02,2.28-2.94c0.64-0.91,1.12-1.7,1.42-2.36c0.3-0.66,0.32-1.04,0.05-1.14
				c-0.27,0-0.88,0.32-1.83,0.95c-0.95,0.64-2,1.5-3.15,2.59c-1.15,1.09-2.32,2.35-3.5,3.77c-1.19,1.42-2.18,2.92-3,4.5
				C260.58,315.54,260.79,315.74,261.19,315.74z"/>
			<path class="st0" d="M84.49,303.32c-0.41,0.31-1.03,1.02-1.88,2.14c-0.85,1.12-1.76,2.43-2.74,3.93c-0.98,1.5-1.98,3.11-3,4.84
				c-1.02,1.73-1.28,2.23-1.99,3.76c-0.71,1.53-1.2,2.83-1.47,3.93c-0.27,1.09-0.2,1.79,0.2,2.1c0.13,0.05,0.34,0.11,0.61,0.08
				c6.34-0.9,12.65-12.94,13.64-11.8c1.14,0.48-8.72,16.73-16.07,16.73c-0.81,0-1.42-0.2-1.83-0.61c-0.54-0.51-0.95-1.12-1.22-1.83
				c-0.27-0.71-0.44-1.46-0.51-2.25c-0.07-0.79-0.07-1.58,0-2.36c0.07-0.79,0.2-1.49,0.41-2.1c-0.07,0.2-0.2,0.41-0.41,0.61
				c-0.34,0.46-0.88,1.18-1.62,2.17c-0.75,0.99-1.57,1.97-2.49,2.94c-0.91,0.97-1.85,1.82-2.79,2.55c-0.95,0.74-1.83,1.11-2.64,1.11
				c-1.08,0-1.93-0.28-2.54-0.84c-0.81-0.71-1.15-1.83-1.02-3.36c0.07-1.58,0.53-3.43,1.37-5.57c0.85-2.14,1.91-4.3,3.2-6.48
				c1.29-2.19,2.71-4.23,4.26-6.14c1.56-1.91,3.08-3.39,4.57-4.46c1.42-0.97,2.57-1.45,3.45-1.45c0.61,0,1.17,0.22,1.68,0.65
				c0.51,0.43,0.91,0.95,1.22,1.56c0.3,0.61,0.54,1.22,0.71,1.83c0.17,0.61,0.25,1.09,0.25,1.45c0.34-0.41,0.76-0.96,1.27-1.68
				c0.51-0.71,1-1.24,1.47-1.6c0.88-0.66,1.89-0.99,3.05-0.99C82.73,302.17,83.68,302.55,84.49,303.32z M63.32,322.64
				c1.25-1.19,2.52-2.55,3.81-4.08c1.29-1.52,2.45-3.02,3.5-4.5c1.05-1.47,1.71-2.46,1.98-2.97l0.3-0.53
				c0.07-0.15,0.15-0.48,0.25-0.99c0.1-0.51,0.19-1.04,0.25-1.6c0.07-0.56,0.1-1.09,0.1-1.6c0-0.51-0.07-0.86-0.2-1.07
				c-0.07-0.1-0.17-0.15-0.3-0.15c-0.47,0-1.1,0.36-1.88,1.07c-0.78,0.71-1.62,1.63-2.54,2.74c-0.91,1.12-1.86,2.38-2.84,3.77
				c-0.98,1.4-1.88,2.76-2.69,4.08c-0.81,1.32-1.51,2.55-2.08,3.7c-0.57,1.14-0.93,2.02-1.07,2.63c-0.2,0.86-0.07,1.3,0.41,1.3
				C61.07,324.44,62.07,323.84,63.32,322.64z"/>
			<g>
				<path class="st0" d="M26.81,292.41c0.01-0.45-0.36-0.82-0.58-1.22c0.07,0.13-0.19,0.02-0.02-0.12c0,0,0,0.47,0.01,0.39
					c-0.04,0.33-0.05,0.58-0.13,0.94c0.07-0.31,0.04-0.13-0.01,0c-0.11,0.25-0.02,0.32-0.04,0.13c0.01,0.07-0.2,0.16,0,0.02
					c0.14-0.1,0.27-0.2,0.43-0.28c0.68-0.34,1.96-0.29,2.91-0.21c3.51,0.28,7.93,1.79,11.31,2.61c4.37,1.06,8.67,2.13,12.94,2.89
					c6.69,1.2,15.99,2.49,19.88-2.9c1.76-2.43,2.08-5.68,2.23-8.76c0.03-0.67,0.33-4.13-0.88-4.37c-0.36-0.07-0.77,0.32-0.99,0.51
					c-0.52,0.46-0.98,1-1.44,1.53c-1.68,1.96-3.3,4.02-4.99,6.05c-6.7,8.08-14.23,16.14-22.59,24.17c-3.08,2.96-6.27,5.92-9.58,8.88
					c-1.62,1.45-3.33,2.81-5.22,4c-2.98,1.88-6.34,3.33-10.01,3.98c-4.52,0.8-10.67,0.48-14.19-2.78c-0.31-0.29-0.6-0.6-0.84-0.94
					c-0.11-0.15-0.2-0.31-0.3-0.46c-0.25-0.37,0,0.13-0.12-0.24c-0.05-0.15-0.09-0.32-0.15-0.47c-0.03-0.09,0.1,0.55,0.04,0.17
					c-0.07-0.46,0.03,0.57,0.02,0.27c0.02,0.38-0.04,1.09-0.13,1.58c0.02-0.09-0.38,1.21-0.15,0.62c-0.19,0.48-0.11,0.23,0.05-0.03
					c0.04-0.07,0.1-0.14,0.15-0.21c-0.08,0.12-0.16,0.16,0.03-0.02c0.31-0.3,0.63-0.58,0.99-0.83c14.25-9.92,39.24,4.62,42.86,5.83
					c0.58,0.19,1.46-5.73,0.29-6.13c-6.78-2.32-13.84-4.44-21.19-5.84c-4.61-0.88-9.44-1.55-14.26-1.28
					c-2.57,0.14-5.52,0.54-7.64,2.01c-2.44,1.7-2.96,5.27-2.56,7.94c0.66,4.37,5.83,6.31,9.98,6.75c7.44,0.78,14.51-2.42,19.75-6.53
					c2.92-2.29,5.52-4.89,8.11-7.35c2.95-2.8,5.81-5.59,8.57-8.38c4.43-4.49,8.62-8.97,12.54-13.48c2.65-3.04,5.18-6.1,7.63-9.14
					c1.34-1.66,2.62-3.39,4.08-4.89c0.19-0.2,0.38-0.39,0.6-0.56c0.08-0.06,0.16-0.12,0.24-0.17c0.04-0.03,0.25-0.12,0.15-0.08
					c-0.1,0.03,0.28-0.05,0.19,0c0.07-0.04-0.1,0.05,0.04,0.07c-0.07-0.01-0.12-0.32-0.07-0.13c0.07,0.26-0.08-0.32-0.06-0.22
					c0.08,0.37-0.07-0.56-0.02-0.15c-0.01-0.07-0.03-0.62-0.02-0.09c-0.01-0.83,0-0.41-0.01-0.09c0,0.09-0.01,0.17-0.01,0.26
					c-0.01,0.37,0.05-0.68,0.01-0.22c-0.04,0.47-0.08,0.93-0.13,1.4c-0.02,0.14-0.03,0.28-0.05,0.43c-0.01,0.08-0.02,0.15-0.03,0.23
					c-0.03,0.3,0.06-0.35,0.01-0.07c-0.02,0.08-0.12,0.61-0.08,0.44c0.03-0.13-0.1,0.36-0.13,0.47c-0.13,0.41-0.13,0.42-0.34,0.86
					c-0.14,0.29-0.29,0.58-0.47,0.84c-0.39,0.58-0.89,1.08-1.44,1.51c-1.14,0.9-2.53,1.46-4.02,1.79
					c-3.57,0.78-7.58,0.41-11.47-0.19c-4.32-0.67-8.69-1.73-13.11-2.84c-3.69-0.92-7.45-1.99-11.28-2.56
					c-2.14-0.32-6.3-0.49-7.7,1.35c-5.1,6.69,7.5,14.04,11.47,14.04C38.46,303.15,26.71,299.06,26.81,292.41z"/>
			</g>
		</g>
	</g>
</g>
</svg>
